<?xml version="1.0" encoding="UTF-8" standalone="no" ?>
<!DOCTYPE svg PUBLIC "-//W3C//DTD SVG 1.1//EN" "http://www.w3.org/Graphics/SVG/1.1/DTD/svg11.dtd">
<svg xmlns="http://www.w3.org/2000/svg" xmlns:xlink="http://www.w3.org/1999/xlink" version="1.1" width="1000" height="1000" viewBox="0 0 500 500" xml:space="preserve">
<desc>Created with Fabric.js 4.6.0</desc>
<defs>
</defs>
<g transform="matrix(1.55 0 0 1.55 240 240)" id="vqh4rZ3y9-HmggDs5He2d"  >
<g style="" vector-effect="non-scaling-stroke"   >
		<g transform="matrix(1 0 0 1 0 0)" id="color_x5F_3"  >
<path style="stroke: none; stroke-width: 1; stroke-dasharray: none; stroke-linecap: butt; stroke-dashoffset: 0; stroke-linejoin: miter; stroke-miterlimit: 4; fill: rgb(179,181,179); fill-rule: nonzero; opacity: 1;" vector-effect="non-scaling-stroke"  transform=" translate(-40, -40)" d="M 76.5 6.6 L 3.5 6.6 C 1.6 6.6 0 8.1 0 10.1 L 0 61.300000000000004 C 0 62.800000000000004 1.3 64.10000000000001 2.8 64.10000000000001 L 32.1 64.10000000000001 L 30.8 71.10000000000001 L 29.7 71.10000000000001 C 29 71.10000000000001 28.5 71.60000000000001 28.5 72.30000000000001 L 28.5 73.4 L 51.4 73.4 L 51.4 72.30000000000001 C 51.4 71.60000000000001 50.9 71.10000000000001 50.199999999999996 71.10000000000001 L 49.099999999999994 71.10000000000001 L 47.89999999999999 64.10000000000001 L 77.19999999999999 64.10000000000001 C 78.69999999999999 64.10000000000001 79.99999999999999 62.80000000000001 79.99999999999999 61.30000000000001 L 79.99999999999999 10.1 C 80 8.1 78.4 6.6 76.5 6.6 z M 40 8.1 C 40.6 8.1 41.1 8.6 41.1 9.2 C 41.1 9.799999999999999 40.6 10.299999999999999 40 10.299999999999999 C 39.4 10.299999999999999 38.9 9.799999999999999 38.9 9.2 C 38.9 8.6 39.4 8.1 40 8.1 z" stroke-linecap="round" />
</g>
		<g transform="matrix(1 0 0 1 0 -30.79)" id="color_x5F_2"  >
<path style="stroke: none; stroke-width: 1; stroke-dasharray: none; stroke-linecap: butt; stroke-dashoffset: 0; stroke-linejoin: miter; stroke-miterlimit: 4; fill: rgb(255,255,255); fill-rule: nonzero; opacity: 1;" vector-effect="non-scaling-stroke"  transform=" translate(-40, -9.21)" d="M 38.9 9.2 C 38.9 8.6 39.4 8.1 40 8.1 C 40.6 8.1 41.1 8.6 41.1 9.2 C 41.1 9.799999999999999 40.6 10.299999999999999 40 10.299999999999999 C 39.4 10.4 38.9 9.9 38.9 9.2 z" stroke-linecap="round" />
</g>
		<g transform="matrix(1 0 0 1 0 -6.85)" id="color_x5F_1"  >
<path style="stroke: none; stroke-width: 1; stroke-dasharray: none; stroke-linecap: butt; stroke-dashoffset: 0; stroke-linejoin: miter; stroke-miterlimit: 4; fill: rgb(255,255,255); fill-rule: nonzero; opacity: 1;" vector-effect="non-scaling-stroke"  transform=" translate(-40, -33.15)" d="M 5 11.7 L 75 11.7 L 75 54.599999999999994 L 5 54.599999999999994 L 5 11.7 z" stroke-linecap="round" />
</g>
</g>
</g>
</svg>