<?xml version="1.0" encoding="UTF-8" standalone="no" ?>
<!DOCTYPE svg PUBLIC "-//W3C//DTD SVG 1.1//EN" "http://www.w3.org/Graphics/SVG/1.1/DTD/svg11.dtd">
<svg xmlns="http://www.w3.org/2000/svg" xmlns:xlink="http://www.w3.org/1999/xlink" version="1.1" width="1000" height="1000" viewBox="0 0 500 500" xml:space="preserve">
<desc>Created with Fabric.js 4.6.0</desc>
<defs>
</defs>
<g transform="matrix(1.62 0 0 1.62 240 240)" id="H4a5OAMT2eAlEDnqZAs91"  >
<g style="" vector-effect="non-scaling-stroke"   >
		<g transform="matrix(1 0 0 1 0 0)" id="color_x5F_1"  >
<path style="stroke: none; stroke-width: 1; stroke-dasharray: none; stroke-linecap: butt; stroke-dashoffset: 0; stroke-linejoin: miter; stroke-miterlimit: 4; fill: rgb(179,181,179); fill-rule: nonzero; opacity: 1;" vector-effect="non-scaling-stroke"  transform=" translate(-40, -40)" d="M 40 0 C 17.9 0 0 17.9 0 40 C 0 62.1 17.9 80 40 80 C 62.1 80 80 62.1 80 40 C 80 17.9 62.1 0 40 0 z" stroke-linecap="round" />
</g>
		<g transform="matrix(1 0 0 1 0 0)" id="color_x5F_2"  >
<path style="stroke: none; stroke-width: 1; stroke-dasharray: none; stroke-linecap: butt; stroke-dashoffset: 0; stroke-linejoin: miter; stroke-miterlimit: 4; fill: rgb(255,255,255); fill-rule: nonzero; opacity: 1;" vector-effect="non-scaling-stroke"  transform=" translate(-40, -40)" d="M 47.6 19.6 C 47.6 23.8 44.2 27.200000000000003 40 27.200000000000003 C 35.8 27.200000000000003 32.4 23.800000000000004 32.4 19.6 C 32.4 15.399999999999999 35.8 12 40 12 C 44.2 12.1 47.6 15.5 47.6 19.6 z M 40 31.5 C 36.8 31.5 34.2 34.1 34.2 37.3 L 34.2 62.199999999999996 C 34.2 65.39999999999999 36.800000000000004 68 40 68 C 43.199999999999996 68 45.8 65.4 45.8 62.2 L 45.8 37.3 C 45.8 34.1 43.2 31.5 40 31.5 z" stroke-linecap="round" />
</g>
</g>
</g>
</svg>